<svg xmlns="http://www.w3.org/2000/svg" width="1024" height="1024" viewBox="0 0 649.2 649.2"><g stroke="#000" stroke-width="2"><path fill="none" stroke="#000" stroke-dasharray="2.47682023,2.47682023" stroke-width="1.2" d="M491 536.4a116.5 116.5 0 1 1-233 0 116.5 116.5 0 0 1 233 0z" transform="matrix(1.607 0 0 1.623 -277.1 -546)"/><path fill="#ffc5c5" d="M126.2 367c-26.3 7.6-52 19.4-77 37.2v1a246.4 246.4 0 0 0 77 36.7 253.6 253.6 0 0 1 0-74.8z" transform="translate(-48.3 -80)"/><path fill="#c5e2c5" d="M619.5 442.2c26.3-7.5 52-19.3 77-37v-1a250.3 250.3 0 0 0-77-37.1 255 255 0 0 1 0 75.1z" transform="translate(-48.3 -80)"/><path fill="#8cc68c" d="M553.6 453.1c22.1-1.3 44.2-4.6 66-10.9a253.7 253.7 0 0 0 0-75.1 303 303 0 0 0-66-10.9c.9 3.5 2 6.9 2.6 10.4a190 190 0 0 1 0 76.2c-.7 3.5-1.7 6.9-2.6 10.3z" transform="translate(-48.3 -80)"/><path fill="#009600" d="M487.8 452c22 1.8 44 2.4 65.8 1.1.9-3.4 2-6.8 2.6-10.3a190.7 190.7 0 0 0 0-76.2c-.7-3.5-1.7-7-2.6-10.4-21.9-1.3-43.9-.6-65.8 1a122.7 122.7 0 0 1 3.8 84.4c-1.1 3.6-2.4 7-3.8 10.5z" transform="translate(-48.3 -80)"/><path fill="green" d="M487.8 452a123.3 123.3 0 0 0 0-94.7h-.6l-1.5.6-112.3 47.4L487.2 452h.6z" transform="translate(-48.3 -80)"/><path fill="#ff8c8c" d="M192.1 356.2a302.7 302.7 0 0 0-66 10.9 255 255 0 0 0 0 74.8c21.7 6.1 43.7 9.3 65.9 10.6-.9-3.2-1.8-6.4-2.5-9.7a190.7 190.7 0 0 1 0-76.2c.7-3.5 1.7-7 2.6-10.4z" transform="translate(-48.3 -80)"/><path fill="red" d="M257.9 357.3a484 484 0 0 0-65.8-1c-.9 3.4-2 6.8-2.6 10.3a190 190 0 0 0 0 76.2c.7 3.3 1.6 6.5 2.5 9.7 21.9 1.3 43.9.7 65.7-1a123.2 123.2 0 0 1 .2-94.2z" transform="translate(-48.3 -80)"/><path fill="#d40000" d="M257.9 357.3a122.7 122.7 0 0 0-.2 94.2l2.4-.1 113.3-46.1L260 357.9l-.4-.5-1.2-.1h-.6z" transform="translate(-48.3 -80)"/><path fill="#ffe854" d="M420.3 289.7a123.5 123.5 0 0 0-94.8 0v.6l47.9 115 46.8-115v-.6z" transform="translate(-48.3 -80)"/><path fill="#ffff54" d="M372.9 215.6a187.9 187.9 0 0 0-37.8 3.8c-3.6.8-7 1.9-10.5 2.8-1.5 22.4-.9 45 .9 67.5a123.5 123.5 0 0 1 94.8 0c1.7-22.5 2.3-45 .8-67.5-3.5-1-7-2-10.5-2.8a185.3 185.3 0 0 0-37.7-3.8z" transform="translate(-48.3 -80)"/><path fill="#ffffb1" d="M372.9 152.7a251.3 251.3 0 0 0-36.8 2.8c-6.6 22-10 44.2-11.5 66.7 3.5-1 7-2 10.5-2.8a185.3 185.3 0 0 1 75.5 0c3.6.8 7 1.8 10.5 2.8-1.4-22.5-5-44.8-11.5-66.7a246.4 246.4 0 0 0-36.7-2.8z" transform="translate(-48.3 -80)"/><path fill="#feffdd" d="M372.4 81a250 250 0 0 0-36.3 74.5 246.4 246.4 0 0 1 73.5 0A250 250 0 0 0 373.4 81h-1z" transform="translate(-48.3 -80)"/><path fill="#c5c5ff" d="M336 653.9a249.8 249.8 0 0 0 36.4 74.3h1c17.1-24 28.7-49 36.2-74.3a246.4 246.4 0 0 1-73.5 0z" transform="translate(-48.3 -80)"/><path fill="#8c8cff" d="M324.6 587.1c1.4 22.5 5 44.8 11.5 66.8a246.4 246.4 0 0 0 73.5 0c6.6-22 10-44.3 11.5-66.8-3.5 1-7 2-10.5 2.8a185.3 185.3 0 0 1-75.5 0c-3.6-.8-7-1.9-10.5-2.8z" transform="translate(-48.3 -80)"/><path fill="#5151ff" d="M325.5 519.6c-1.8 22.5-2.4 45-1 67.5 3.6 1 7 2 10.6 2.8a185.3 185.3 0 0 0 75.5 0c3.6-.8 7-1.9 10.5-2.8 1.5-22.4.9-45-.8-67.5a123.5 123.5 0 0 1-94.8 0z" transform="translate(-48.3 -80)"/><path fill="#0000c8" d="M325.5 519.6a123.5 123.5 0 0 0 94.8 0v-.6l-47-113.7-47.2 112.1-.6 1.6v.6z" transform="translate(-48.3 -80)"/><path fill="#ff7d00" d="m325 289.8-.6.3a123.2 123.2 0 0 0-54.7 45 124.2 124.2 0 0 0-11.5 21.2l-.2.6.5.4 114.9 48-47.2-113.4v-.7l-.7-1c-.2 0-.3-.2-.4-.4z" transform="translate(-48.3 -80)"/><path fill="#ffa854" d="M278.3 241.7c-3.4 2-6.8 4-10.1 6.2a187.9 187.9 0 0 0-57.7 62.9 482.2 482.2 0 0 0 47.5 46l.2-.5a124 124 0 0 1 66.2-66.2l.7-.3a480 480 0 0 0-46.8-48.1z" transform="translate(-48.3 -80)"/><path fill="#ffc48c" d="M223.5 202.9a251.2 251.2 0 0 0-50.5 51c-.6.7-1 1.5-1.5 2.2 10.9 19.9 24.2 38 39 54.7a189.3 189.3 0 0 1 18-26.4 189.5 189.5 0 0 1 39.7-36.5c3.3-2.2 6.7-4.2 10-6.2a301 301 0 0 0-54.7-38.8z" transform="translate(-48.3 -80)"/><path fill="#ffe2ff" d="M171.5 553.3a250 250 0 0 0-27.8 79.8l.7.7a250 250 0 0 0 79.1-27.3 251.2 251.2 0 0 1-50.5-51.1l-1.5-2.1z" transform="translate(-48.3 -80)"/><path fill="#ffc6ff" d="M210.5 498.5a302.5 302.5 0 0 0-39 54.8l1.5 2a253.2 253.2 0 0 0 50.5 51.2c20-10.9 38-24.1 54.8-38.9-3.4-2-6.8-4-10.1-6.2a187.9 187.9 0 0 1-57.7-62.9z" transform="translate(-48.3 -80)"/><path fill="#ff54ff" d="M258 452.4a481.6 481.6 0 0 0-47.5 46.1 189.9 189.9 0 0 0 18 26.4 189 189 0 0 0 39.7 36.5c3.3 2.2 6.7 4.2 10 6.2a480.7 480.7 0 0 0 46.8-48.1l-.6-.2a123.4 123.4 0 0 1-47.5-35.5 125 125 0 0 1-18.7-30.7l-.2-.7z" transform="translate(-48.3 -80)"/><path fill="#de00de" d="m258 452.4.2.7a124 124 0 0 0 66.2 66.2c.2 0 .4 0 .6.2l.5-.5 47.9-113.7-115 46.7-.4.4z" transform="translate(-48.3 -80)"/><path fill="#d5eeff" d="M522.2 606.4a250 250 0 0 0 79 27.4l.8-.7a250 250 0 0 0-27.7-79.9l-1.6 2.2a253.2 253.2 0 0 1-50.5 51z" transform="translate(-48.3 -80)"/><path fill="#a5dbff" d="M467.4 567.6c16.8 14.8 34.8 28 54.8 38.8a251.2 251.2 0 0 0 50.5-51l1.6-2.2c-11-20-24.3-38-39.1-54.7-2.3 4-4.6 8-7.2 11.9a189.8 189.8 0 0 1-50.5 51c-3.3 2.2-6.7 4.2-10 6.2z" transform="translate(-48.3 -80)"/><path fill="#59bdff" d="M420.6 519.5c14.6 17 30 33.3 46.8 48.1 3.4-2 6.8-4 10-6.2a188.4 188.4 0 0 0 50.6-51c2.6-3.9 4.9-7.9 7.2-12a482.2 482.2 0 0 0-47.5-46l-.2.7a124 124 0 0 1-66.2 66.2c-.2 0-.5 0-.7.2z" transform="translate(-48.3 -80)"/><path fill="#0089e0" d="m420.6 519.5.7-.2a124 124 0 0 0 66.2-66.2l.2-.7-.5-.4-113.8-46.7L420.2 519l.4.5z" transform="translate(-48.3 -80)"/><path fill="#c5ffc5" d="M574.3 256.1c13-23.7 22.7-50 27.7-80l-.7-.6a250 250 0 0 0-79.1 27.4 251.2 251.2 0 0 1 50.5 51l1.6 2.2z" transform="translate(-48.3 -80)"/><path fill="#00b400" d="m487.7 356.9-.2-.6a124 124 0 0 0-66.2-66.2l-.7-.2-.4.4-.7 1.6v-.7l-46.1 114 113.8-48c.2 0 .3-.2.5-.3z" transform="translate(-48.3 -80)"/><path fill="#54ff54" d="M467.4 241.7a479.6 479.6 0 0 0-46.8 48.2 123.7 123.7 0 0 1 66.8 66.4l.3.6a483.1 483.1 0 0 0 47.5-46 189.3 189.3 0 0 0-18-26.5 189.5 189.5 0 0 0-39.7-36.5c-3.3-2.2-6.7-4.2-10-6.2z" transform="translate(-48.3 -80)"/><path fill="#8cff8c" d="M522.2 202.9c-20 10.9-38 24-54.8 38.8 3.4 2 6.8 4 10 6.2a188.4 188.4 0 0 1 57.8 63 302 302 0 0 0 39-54.8l-1.5-2.2a252.2 252.2 0 0 0-50.5-51z" transform="translate(-48.3 -80)"/><path fill="#ffe1c5" d="M223.5 202.9a250 250 0 0 0-79-27.4l-.8.7c5 29.8 14.7 56.2 27.8 79.9l1.5-2.2a252.2 252.2 0 0 1 50.5-51z" transform="translate(-48.3 -80)"/></g><g font-family="Tahoma" font-size="14" font-weight="400" style="text-align:center" text-anchor="middle"><text x="488.6" y="663.7" transform="translate(-48.3 -80)"><tspan x="488.6" y="663.7">decepción</tspan></text><text x="258.6" y="661.7" transform="translate(-48.3 -80)"><tspan x="258.6" y="661.7">remordimiento</tspan></text><text x="91.4" y="513" transform="translate(-48.3 -80)"><tspan x="91.4" y="513">desprecio</tspan></text><text x="646.8" y="513" transform="translate(-48.3 -80)"><tspan x="646.8" y="513">susto</tspan></text><text x="649" y="310.9" transform="translate(-48.3 -80)"><tspan x="649" y="310.9">sumisión</tspan></text><text x="490.1" y="157.5" transform="translate(-48.3 -80)"><tspan x="490.1" y="157.5">amor</tspan></text><text x="267.1" y="157.5" transform="translate(-48.3 -80)"><tspan x="267.1" y="157.5">optimismo</tspan></text><text x="91.5" y="304.9" transform="translate(-48.3 -80)"><tspan x="91.5" y="304.9">alevosía</tspan></text><path fill="#ff8c8c" d="M121.2 518.3h2.4v12.2h-2.4z" color="#000" opacity=".8" overflow="visible" transform="matrix(1 0 0 .745 -47.5 -65.6)"/><path fill="#8cc686" d="M121.2 518.3h2.4v12.2h-2.4z" color="#000" opacity=".8" overflow="visible" transform="matrix(1 0 0 .73 451.3 -56.2)"/><text x="372.4" y="625.6" transform="translate(-48.3 -80)"><tspan x="372.4" y="625.6">melancolía</tspan></text><text x="153.2" y="408.3" transform="translate(-48.3 -80)"><tspan x="153.2" y="408.3">enfado</tspan></text><text x="217.6" y="408.2" transform="translate(-48.3 -80)"><tspan x="217.6" y="408.2">ira</tspan></text><text x="280.7" y="408.2" transform="translate(-48.3 -80)"><tspan x="280.7" y="408.2">furia</tspan></text><text x="372.6" y="316.2" transform="translate(-48.3 -80)"><tspan x="372.6" y="316.2">extasis</tspan></text><text x="373.3" y="256.3" transform="translate(-48.3 -80)"><tspan x="373.3" y="256.3">alegría</tspan></text><text x="372.5" y="191.2" transform="translate(-48.3 -80)"><tspan x="372.5" y="191.2">serenidad</tspan></text><text x="460.6" y="409.5" transform="translate(-48.3 -80)"><tspan x="460.6" y="409.5">terror</tspan></text><text x="527.9" y="410.2" transform="translate(-48.3 -80)"><tspan x="527.9" y="410.2">miedo</tspan></text><text x="591.8" y="410.2" transform="translate(-48.3 -80)"><tspan x="591.8" y="410.2">temor</tspan></text><text x="439.7" y="353.5" transform="translate(-48.3 -80)"><tspan x="439.7" y="353.5">admiración</tspan></text><text x="479.8" y="297.5" transform="translate(-48.3 -80)"><tspan x="479.8" y="297.5">confianza</tspan></text><text x="526.8" y="254.4" transform="translate(-48.3 -80)"><tspan x="526.8" y="254.4">aprobación</tspan></text><text x="309.4" y="353.5" transform="translate(-48.3 -80)"><tspan x="309.4" y="353.5">vigilancia</tspan></text><text x="265.4" y="298" transform="translate(-48.3 -80)"><tspan x="265.4" y="298">anticipación</tspan></text><text x="218.4" y="254.4" transform="translate(-48.3 -80)"><tspan x="218.4" y="254.4">interés</tspan></text><text x="220.8" y="567.7" transform="translate(-48.3 -80)"><tspan x="220.8" y="567.7">tedio</tspan></text><text x="264.4" y="517.9" transform="translate(-48.3 -80)"><tspan x="264.4" y="517.9">aversión</tspan></text><text x="310.7" y="465.4" transform="translate(-48.3 -80)"><tspan x="310.7" y="465.4">odio</tspan></text><text x="440.2" y="465.4" transform="translate(-48.3 -80)"><tspan x="440.2" y="465.4">asombro</tspan></text><text x="482.5" y="517.7" transform="translate(-48.3 -80)"><tspan x="482.5" y="517.7">sorpresa</tspan></text><text x="525.1" y="567.7" transform="translate(-48.3 -80)"><tspan x="525.1" y="567.7">distracción</tspan></text><text x="372.7" y="561.9" transform="translate(-48.3 -80)"><tspan x="372.7" y="561.9">tristeza</tspan></text><text x="372.2" y="505.8" transform="translate(-48.3 -80)"><tspan x="372.2" y="505.8">pena</tspan></text></g></svg>